<svg width="18" height="21" viewBox="0 0 18 21" fill="none" xmlns="http://www.w3.org/2000/svg">
<path d="M16.3839 5.09821C16.5923 5.30655 16.7708 5.58928 16.9196 5.94643C17.0685 6.30357 17.1429 6.63095 17.1429 6.92857V19.7857C17.1429 20.0833 17.0387 20.3363 16.8304 20.5446C16.622 20.753 16.369 20.8571 16.0714 20.8571H1.07143C0.77381 20.8571 0.520833 20.753 0.3125 20.5446C0.104167 20.3363 0 20.0833 0 19.7857V1.92857C0 1.63095 0.104167 1.37798 0.3125 1.16964C0.520833 0.961309 0.77381 0.857141 1.07143 0.857141H11.0714C11.369 0.857141 11.6964 0.931546 12.0536 1.08036C12.4107 1.22917 12.6935 1.40774 12.9018 1.61607L16.3839 5.09821ZM11.4286 2.375V6.57143H15.625C15.5506 6.35565 15.4688 6.20312 15.3795 6.11384L11.8862 2.62054C11.7969 2.53125 11.6443 2.4494 11.4286 2.375ZM15.7143 19.4286V8H11.0714C10.7738 8 10.5208 7.89583 10.3125 7.6875C10.1042 7.47917 10 7.22619 10 6.92857V2.28571H1.42857V19.4286H15.7143ZM9.97768 12.8103C10.2232 13.0037 10.5357 13.2121 10.9152 13.4353C11.3542 13.3832 11.7894 13.3571 12.221 13.3571C13.3147 13.3571 13.9732 13.5394 14.1964 13.904C14.3155 14.0677 14.3229 14.2612 14.2188 14.4844C14.2188 14.4918 14.215 14.4993 14.2076 14.5067C14.2001 14.5141 14.1927 14.5216 14.1853 14.529V14.5402C14.1406 14.8229 13.8765 14.9643 13.3929 14.9643C13.0357 14.9643 12.6079 14.8899 12.1094 14.7411C11.6109 14.5923 11.1272 14.3951 10.6585 14.1496C9.01414 14.3281 7.5558 14.6369 6.28348 15.0759C5.14509 17.0253 4.24479 18 3.58259 18C3.47098 18 3.36682 17.974 3.27009 17.9219L3.00223 17.7879C2.99479 17.7805 2.97247 17.7619 2.93527 17.7321C2.86086 17.6577 2.83854 17.5238 2.8683 17.3304C2.93527 17.0327 3.1436 16.6942 3.4933 16.3147C3.84301 15.9278 4.33408 15.567 4.96652 15.2321C5.07068 15.1652 5.15625 15.1875 5.22321 15.2991C5.2381 15.314 5.24554 15.3289 5.24554 15.3438C5.63244 14.7113 6.03051 13.9784 6.43973 13.1451C6.94568 12.1332 7.33259 11.1585 7.60045 10.221C7.42188 9.61086 7.30655 9.01934 7.25446 8.44643C7.20982 7.86607 7.23586 7.38988 7.33259 7.01786C7.41443 6.72024 7.57068 6.57143 7.80134 6.57143H8.03571H8.04688C8.21801 6.57143 8.34821 6.62723 8.4375 6.73884C8.57143 6.89509 8.60491 7.14806 8.53795 7.49777C8.52307 7.54241 8.50818 7.57217 8.4933 7.58705C8.50074 7.60937 8.50446 7.63914 8.50446 7.67634V8.01116C8.48958 8.92634 8.4375 9.64062 8.34821 10.154C8.75744 11.3743 9.3006 12.2597 9.97768 12.8103ZM3.54911 17.3973C3.93601 17.2187 4.44568 16.631 5.07812 15.6339C4.69866 15.9315 4.37128 16.244 4.09598 16.5714C3.82813 16.8988 3.64583 17.1741 3.54911 17.3973ZM7.99107 7.12946C7.87946 7.44196 7.87202 7.93303 7.96875 8.60268C7.97619 8.55059 8.00223 8.3869 8.04688 8.11161C8.04688 8.08929 8.07292 7.92931 8.125 7.6317C8.13244 7.60193 8.14732 7.57217 8.16964 7.54241C8.1622 7.53497 8.15848 7.52753 8.15848 7.52009C8.15848 7.51265 8.15476 7.50893 8.14732 7.50893C8.14732 7.50149 8.14732 7.49405 8.14732 7.48661C8.13988 7.32292 8.09152 7.18899 8.00223 7.08482C8.00223 7.09226 7.99851 7.0997 7.99107 7.10714V7.12946ZM6.60714 14.5067C7.61161 14.1049 8.66816 13.8036 9.77679 13.6027C9.76191 13.5952 9.71354 13.5618 9.6317 13.5022C9.54985 13.4353 9.49033 13.3832 9.45313 13.346C8.88765 12.8475 8.41518 12.1927 8.03571 11.3817C7.83482 12.0216 7.52604 12.7545 7.10938 13.5804C6.88616 13.997 6.71875 14.3058 6.60714 14.5067ZM13.817 14.3281C13.6384 14.1496 13.1176 14.0603 12.2545 14.0603C12.8199 14.2686 13.2813 14.3728 13.6384 14.3728C13.7426 14.3728 13.8095 14.369 13.8393 14.3616C13.8393 14.3542 13.8318 14.343 13.817 14.3281Z" fill="#010101"/>
</svg>
