<svg width="62" height="39" viewBox="0 0 62 39" fill="none" xmlns="http://www.w3.org/2000/svg">
<path d="M2.74766 37.35H1.24766C1.09766 37.35 0.947656 37.5 0.947656 37.7C0.947656 37.85 1.09766 38 1.24766 38H14.9477L15.1477 23.3C15.1477 23.15 15.0477 23 14.8977 23C14.6477 23 14.5977 23.1 14.5477 23.7C14.4477 26.35 13.4477 30.75 13.0477 32.15C11.7977 36.1 10.7977 37.35 8.79766 37.35H7.79766V1.9H9.39766C9.54766 1.9 9.64766 1.75 9.64766 1.6C9.64766 1.4 9.54766 1.25 9.39766 1.25H1.24766C1.09766 1.25 0.997656 1.4 0.997656 1.6C0.997656 1.75 1.09766 1.9 1.24766 1.9H2.74766V37.35ZM22.1332 4.3C22.1332 2.7 22.7332 1.65 23.6832 1.65C24.6332 1.65 25.2832 2.75 25.2832 4.3V35.6C25.2832 36.85 24.6832 37.75 23.7832 37.75C22.7332 37.75 22.1332 36.5 22.1332 34.35V4.3ZM16.9832 24.85C16.9832 33.05 19.6332 38.4 23.7832 38.4C28.0332 38.4 30.5332 33.25 30.5332 24.5V15.5C30.5332 11.15 29.9832 1.05 23.6332 1.05C19.5332 1.05 16.9832 6.1 16.9832 14.3V24.85ZM32.407 24.55C32.407 30.05 33.657 34.7 35.607 36.85C36.507 37.8 37.807 38.4 39.207 38.4C40.857 38.4 41.957 37.45 43.607 34.55L45.007 37.95C45.057 38.15 45.207 38.3 45.357 38.3C45.507 38.3 45.557 38.15 45.557 37.95V21.6H46.657C46.807 21.6 46.957 21.5 46.957 21.3C46.957 21.15 46.807 21 46.657 21H39.557C39.407 21 39.257 21.15 39.257 21.3C39.257 21.5 39.407 21.6 39.557 21.6H40.857V35.25C40.857 36.8 40.207 37.75 39.157 37.75C38.307 37.75 37.607 37 37.607 36.05V4.5C37.607 2.55 38.207 1.55 39.357 1.55C39.907 1.55 40.657 1.95 41.107 2.5C42.407 3.95 43.657 9.55 44.107 15.85C44.157 16.05 44.207 16.15 44.407 16.15C44.557 16.15 44.657 16 44.657 15.85V1.35C44.657 1.15 44.607 1.05 44.507 1.05C44.407 1.05 44.257 1.15 44.157 1.35L42.507 3.6C41.307 1.7 40.357 0.949997 39.057 0.949997C33.907 0.949997 32.407 9.7 32.407 15.45V24.55ZM53.5785 4.3C53.5785 2.7 54.1785 1.65 55.1285 1.65C56.0785 1.65 56.7285 2.75 56.7285 4.3V35.6C56.7285 36.85 56.1285 37.75 55.2285 37.75C54.1785 37.75 53.5785 36.5 53.5785 34.35V4.3ZM48.4285 24.85C48.4285 33.05 51.0785 38.4 55.2285 38.4C59.4785 38.4 61.9785 33.25 61.9785 24.5V15.5C61.9785 11.15 61.4285 1.05 55.0785 1.05C50.9785 1.05 48.4285 6.1 48.4285 14.3V24.85Z" fill="#010101"/>
</svg>
